<svg xmlns="http://www.w3.org/2000/svg" width="99" height="27" viewBox="0 0 99 27">
    <g fill="none" fill-rule="evenodd">
        <path fill="#FFF" d="M17.598 4.586a5.506 5.506 0 0 0-1.195-2.029c-.546-.593-1.254-1.07-2.124-1.431-.871-.361-1.927-.542-3.167-.542H2.168v19.842H2.2v.022H0l4.27 5.65 4.412-5.65H6.481v-.022h.048V8.06H4.45l4.154-5.32 4.02 5.32h-2.072v5.252h.559c1.24 0 2.296-.18 3.166-.542.87-.361 1.579-.838 2.125-1.431a5.485 5.485 0 0 0 1.195-2.043c.25-.768.375-1.551.375-2.348 0-.815-.125-1.602-.375-2.362"/>
        <path fill="#07A0BB" d="M85.145 20.426h3.945V.584h-3.945z"/>
        <path fill="#FFF" d="M21.573 6.059v2.668h.055a4.929 4.929 0 0 1 1.833-2.21 5.313 5.313 0 0 1 1.306-.625 4.713 4.713 0 0 1 1.444-.222c.26 0 .547.046.862.139v3.668a7.814 7.814 0 0 0-1.417-.139c-.722 0-1.333.12-1.833.361s-.903.57-1.209.987a3.948 3.948 0 0 0-.652 1.459 7.915 7.915 0 0 0-.195 1.806v6.475h-3.944V6.06h3.75"/>
        <path fill="#FFF" d="M33.837 8.83c-.623-.322-1.386-.316-2.288.02-.59.22-1.044.502-1.36.847a2.992 2.992 0 0 0-.662 1.09 2.899 2.899 0 0 0-.146 1.123c.027.365.08.682.16.948l6.014-2.237c-.522-.873-1.094-1.47-1.718-1.792zm-1.546 8.639c.756.331 1.654.304 2.696-.084.746-.277 1.319-.703 1.718-1.276.4-.574.582-1.092.549-1.554l3.255-1.21c.08 1.809-.29 3.26-1.108 4.355-.819 1.096-1.992 1.927-3.519 2.495-1.059.394-2.076.58-3.052.557a6.353 6.353 0 0 1-2.699-.642 6.935 6.935 0 0 1-2.199-1.732c-.644-.748-1.16-1.644-1.546-2.686a8.383 8.383 0 0 1-.55-2.997 7.04 7.04 0 0 1 .568-2.776c.372-.86.91-1.629 1.617-2.307.706-.677 1.572-1.207 2.596-1.588 1.145-.425 2.226-.576 3.241-.45a6.384 6.384 0 0 1 2.76 1.006 7.833 7.833 0 0 1 2.132 2.112 10.17 10.17 0 0 1 1.373 2.899l-9.711 3.612c.497 1.179 1.123 1.934 1.88 2.266z"/>
        <path fill="#FFF" d="M50.966 11.492a4.196 4.196 0 0 0-.569-1.446 3.22 3.22 0 0 0-1.041-1.014c-.427-.26-.964-.389-1.612-.389-.648 0-1.194.13-1.639.39a3.08 3.08 0 0 0-1.069 1.028 4.551 4.551 0 0 0-.583 1.459 7.913 7.913 0 0 0-.18 1.709c0 .555.064 1.111.194 1.667s.337 1.052.625 1.487c.287.435.648.788 1.083 1.056.435.269.958.403 1.57.403.647 0 1.19-.13 1.625-.39.434-.259.782-.606 1.041-1.041.259-.436.444-.931.555-1.487.112-.556.167-1.13.167-1.723 0-.593-.055-1.163-.167-1.71zm.167 7.1c-.463.778-1.07 1.339-1.82 1.682-.749.342-1.596.514-2.54.514-1.075 0-2.02-.209-2.834-.626a5.688 5.688 0 0 1-2.014-1.695 7.689 7.689 0 0 1-1.194-2.46 10.321 10.321 0 0 1-.403-2.89c0-.963.134-1.894.403-2.793a7.259 7.259 0 0 1 1.194-2.375 5.958 5.958 0 0 1 1.986-1.654c.796-.417 1.722-.625 2.778-.625.851 0 1.662.18 2.43.542a4.235 4.235 0 0 1 1.82 1.597h.055V.584h3.945v19.842h-3.75v-1.834h-.056zM55.465 20.426h3.944V6.06h-3.944v14.367zm0-16.59h3.944V.584h-3.944v3.252z"/>
        <path fill="#07A0BB" d="M98.865 6.026v2.642h-2.89v7.117c0 .667.111 1.112.334 1.334.222.222.667.334 1.333.334.223 0 .436-.01.64-.028.203-.018.398-.046.583-.084V20.4a9.431 9.431 0 0 1-1.111.11c-.408.019-.806.029-1.195.029-.611 0-1.19-.042-1.737-.126a4.09 4.09 0 0 1-1.445-.486 2.571 2.571 0 0 1-.987-1.029c-.24-.445-.36-1.029-.36-1.751v-8.48h-2.39v-2.64h2.39V3.185l3.945-1.469v4.31h2.89"/>
        <path fill="#FFF" d="M66.405 8.643c-.63 0-1.158.144-1.583.43a3.423 3.423 0 0 0-1.042 1.113 4.8 4.8 0 0 0-.57 1.5 7.794 7.794 0 0 0 0 3.21c.112.538.292 1.024.542 1.459.25.436.588.792 1.014 1.07.426.278.944.417 1.556.417.944 0 1.67-.264 2.18-.792.51-.528.829-1.237.959-2.126h3.805c-.26 1.908-1 3.363-2.222 4.363-1.223 1-2.788 1.5-4.694 1.5-1.075 0-2.06-.18-2.959-.541A6.549 6.549 0 0 1 61.1 18.73a6.888 6.888 0 0 1-1.473-2.32c-.352-.899-.527-1.886-.527-2.96 0-1.111.161-2.144.486-3.099.323-.954.8-1.778 1.43-2.473a6.539 6.539 0 0 1 2.306-1.626c.907-.389 1.944-.583 3.11-.583.852 0 1.672.11 2.46.333.786.223 1.49.56 2.11 1.014a5.435 5.435 0 0 1 1.514 1.696c.389.676.611 1.477.667 2.403H69.32c-.259-1.648-1.231-2.473-2.916-2.473"/>
        <path fill="#FFF" d="M81.363 6.059v2.64h-2.889v7.114c0 .667.111 1.112.334 1.334.222.223.666.334 1.332.334.223 0 .436-.01.64-.028.203-.019.398-.046.583-.083v3.056a9.356 9.356 0 0 1-1.111.111 26.2 26.2 0 0 1-1.194.029c-.612 0-1.19-.042-1.737-.126a4.091 4.091 0 0 1-1.444-.486 2.572 2.572 0 0 1-.986-1.028c-.241-.445-.361-1.029-.361-1.751V8.699H72.14v-2.64h2.389V3.186l3.944-1.435V6.06h2.889"/>
    </g>
</svg>
